<svg width="865" height="865" viewBox="0 0 865 865" fill="none"
    xmlns="http://www.w3.org/2000/svg">
    <ellipse cx="239.5" cy="690" rx="150.5" ry="33" fill="black" fill-opacity="0.04"/>
    <ellipse cx="653.5" cy="690" rx="150.5" ry="33" fill="black" fill-opacity="0.04"/>
    <path fill-rule="evenodd" clip-rule="evenodd" d="M779.832 504.742V505.592C779.603 574.814 723.48 630.874 654.234 631H653.765C584.377 630.874 528.166 574.585 528.166 505.167C528.166 477.958 536.802 452.767 551.481 432.183H756.517C771.121 452.66 779.743 477.696 779.832 504.742Z" fill="#FF4D00"/>
    <circle cx="588.567" cy="432.184" r="15.1" fill="#FF4D00"/>
    <circle cx="628.833" cy="432.183" r="10.0667" fill="#FF4D00"/>
    <circle cx="669.1" cy="391.917" r="10.0667" fill="#FF4D00"/>
    <circle cx="646.45" cy="323.966" r="5.03333" fill="#FF4D00"/>
    <circle cx="651.484" cy="245.95" r="10.0667" fill="#FF4D00"/>
    <circle cx="676.651" cy="276.15" r="5.03333" fill="#FF4D00"/>
    <circle cx="700.558" cy="413.308" r="3.775" fill="#FF4D00"/>
    <circle cx="672.876" cy="317.675" r="6.29167" fill="#FF4D00"/>
    <circle cx="591.083" cy="492.583" r="12.5833" fill="#661F00"/>
    <circle cx="716.916" cy="517.75" r="10.0667" fill="#661F00"/>
    <circle cx="691.75" cy="467.417" r="15.1" fill="#661F00"/>
    <circle cx="641.417" cy="568.083" r="7.55" fill="#661F00"/>
    <circle cx="669.1" cy="583.183" r="7.55" fill="#661F00"/>
    <circle cx="583.533" cy="565.567" r="5.03333" fill="#661F00"/>
    <circle cx="636.383" cy="469.933" r="5.03333" fill="#661F00"/>
    <path fill-rule="evenodd" clip-rule="evenodd" d="M601.15 178C594.2 178 588.567 183.634 588.567 190.583C588.567 197.533 594.2 203.167 601.15 203.167H706.85C713.8 203.167 719.433 197.533 719.433 190.583C719.433 183.634 713.8 178 706.85 178H601.15ZM616.25 358.924V203.167H691.75V358.924C756.877 375.687 805 434.807 805 505.167C805 588.562 737.395 656.167 654 656.167C570.605 656.167 503 588.562 503 505.167C503 434.807 551.123 375.687 616.25 358.924Z" fill="#BDBDBD" fill-opacity="0.3"/>
    <ellipse cx="577.294" cy="439.983" rx="35.2333" ry="61.6583" transform="rotate(35 577.294 439.983)" fill="white" fill-opacity="0.2"/>
    <path fill-rule="evenodd" clip-rule="evenodd" d="M177.784 152.611C177.784 146.199 182.983 141 189.395 141H286.932C293.345 141 298.543 146.199 298.543 152.611C298.543 159.024 293.345 164.223 286.932 164.223L274.354 164.223C271.04 164.223 268.354 166.909 268.354 170.223V275.876C268.354 276.883 268.607 277.874 269.091 278.758L415.086 545.371C418.735 552.035 413.913 560.174 406.315 560.174H70.0142C62.4163 560.174 57.5939 552.035 61.2431 545.371L207.237 278.76C207.72 277.877 207.974 276.886 207.974 275.879V170.223C207.974 166.909 205.288 164.223 201.974 164.223L189.395 164.223C182.983 164.223 177.784 159.024 177.784 152.611Z" fill="#BDBDBD" fill-opacity="0.3"/>
    <path fill-rule="evenodd" clip-rule="evenodd" d="M296.344 373.229C298.169 373.229 299.85 374.224 300.728 375.825L386.952 533.03C388.78 536.362 386.368 540.435 382.568 540.435H93.761C89.9606 540.435 87.5495 536.362 89.3771 533.03L175.601 375.825C176.479 374.224 178.16 373.229 179.985 373.229H296.344Z" fill="#BB6BD9"/>
    <circle cx="203.33" cy="375.552" r="13.9338" fill="#BB6BD9"/>
    <circle cx="240.487" cy="375.552" r="9.28918" fill="#BB6BD9"/>
    <circle cx="252.099" cy="338.395" r="9.28918" fill="#BB6BD9"/>
    <circle cx="231.197" cy="275.693" r="4.64459" fill="#BB6BD9"/>
    <circle cx="235.842" cy="203.702" r="9.28918" fill="#BB6BD9"/>
    <circle cx="259.065" cy="231.57" r="4.64459" fill="#BB6BD9"/>
    <circle cx="281.127" cy="358.135" r="3.48344" fill="#BB6BD9"/>
    <circle cx="255.581" cy="269.887" r="5.80574" fill="#BB6BD9"/>
    <circle cx="180.107" cy="431.287" r="11.6115" fill="#9B51E0"/>
    <circle cx="296.222" cy="454.51" r="9.28918" fill="#9B51E0"/>
    <circle cx="272.998" cy="408.064" r="13.9338" fill="#9B51E0"/>
    <circle cx="226.553" cy="500.956" r="6.96688" fill="#9B51E0"/>
    <circle cx="252.098" cy="514.89" r="6.96688" fill="#9B51E0"/>
    <circle cx="173.14" cy="498.633" r="4.64459" fill="#9B51E0"/>
    <circle cx="221.908" cy="410.386" r="4.64459" fill="#9B51E0"/>
    <ellipse cx="170.227" cy="430.254" rx="32.5121" ry="124.841" transform="rotate(30 170.227 430.254)" fill="white" fill-opacity="0.2"/>
</svg>
